<svg xmlns="http://www.w3.org/2000/svg" width="450" height="180" viewBox="0 0 450 180">
    <defs>
        <filter id="s4a4v6nmna">
            <feColorMatrix in="SourceGraphic" values="0 0 0 0 0.000000 0 0 0 0 0.000000 0 0 0 0 0.000000 0 0 0 0.700000 0"/>
        </filter>
    </defs>
    <g fill="none" fill-rule="evenodd">
        <g>
            <g>
                <g filter="url(#s4a4v6nmna)" transform="translate(-186 -1358) translate(186 1270) translate(0 88)">
                    <g>
                        <path fill="#FFFFFE" d="M43.403 12.681H22.015c.014.436-.023 14.122-.023 21.433H.6v21.453h21.414V34.134h21.369v21.433h21.41V34.114h-21.39V12.68zM22.013 12.681h.002c0-.013-.002-.013-.002 0M285.354 27.346c-.213-.105-.424-.105-.585 0-.691.48-1.642 1.927-2.066 2.404l-.584.373h-4.152v-8.162h9.3c.119 2.684.302 4.962.577 7.352l-2.49-1.967zm-4.031 18.893c-.491 2.244-1.63 2.058-3.04 2.058-.508 0-1.51-.059-2.5-.12v-.322c1.17-3.246 2.143-16.204 2.143-16.204l3.09.033s.555-.094.584.525c.32 6.428-.04 12.947-.277 14.03zm23.644 10.993c.408-.612.046-1.704-.78-2.72.042-1.843.225-3.738.179-8.168-.006-.698.097-4.785-.278-4.89-.37-.11-1.286 3.654-1.426 4.244-.601 2.493-1.445 3.77-1.765 4.25-.214.265-.42.346-.635.322-1.712-.188-3.893-3.992-4.725-6.616l.585-.905c2.025-3.722 3.63-6.935 4.75-10.396.054-.155.367-.678.636-.737.639-.048 1.548.008 1.745-.696.099-.366-1.006-1.431-1.928-2.083-1.526-.97-3.825-2.228-4.425-2.341-.606-.115-.671.016-.722.278-.078.552.58 1.453.369 2.499-.684 3.316-1.954 8.332-3.181 9.946-1.107-4.473-1.658-11.563-1.82-17.258h12.351c.475 0 .69-.105.849-.37.108-.163.062-.438-.212-.692-1.375-1.283-2.537-2.327-3.972-3.337-.35-.25-.585-.156-.849.051l-2.092 2.593c-.162.267-.48.37-.855.37h-5.274v-5.568c.054-1.442-.154-1.898 1.006-2.443.564-.263 1.071-.538 1.071-.91 0-.37-1.31-1.18-2.231-1.5-1.126-.387-2.973-.778-4.46-1.143-.468-.113-.69.106-.638.426.157.904.922 1.915.87 2.874l.106 8.264h-8.54c-1.914-1.012-3.565-2.049-4.946-2.585-.27-.05-.372.053-.372.426v9.536c0 12.716-.422 20.401-3.36 26.041-1.478 2.83-4.353 4.998-4.243 5.103.16.162 2.266-.428 3.567-1.596 3.013-2.709 4.31-4.65 5.97-8.428.383-.253 1.94.87 2.316 1.618 0 0-.34 2.394.873 2.394 4.92 0 6.34-4.82 6.735-6.784.29-1.434.458-9.881.304-14.258l.648-.403c1.272-.367 1.984.136 1.984.136.734 5.175 1.618 9.145 2.599 12.202-2.168 4.016-3.721 6.332-6.641 9.967-1.897 2.353-3.234 3.523-4.63 4.562-.134.1.225.248.425.162 4.985-2.033 8.56-5.994 12.6-10.675 2.772 4.058 4.12 5.474 6.232 7.534 1.936 1.889 3.34 2.615 4.244 2.615.747-.059 1.522-.214 1.986-.91zM260.15 41.316h4.863c.326 0 .513.267.513.538v8.783h-5.376v-9.321zm-2.387 16.352c.968-.386 1.83-1.032 1.83-1.032s.562-.3.562-1.065l-.005-3.909h5.376v3.135c0 1.071.989.507 1.396.345.971-.388 2.023-1.464 2.023-1.464s.366-.39.366-.798l-.003-9.776c0-.234.116-.73.356-.85.472-.16 1.446-.695 1.488-.972.08-.273-.073-.512-.358-.787-.804-.788-2.166-1.906-3.505-2.338-.24-.114-.435-.075-.591.08 0 0-1.445 2.052-1.63 2.052h-4.72c-.997-.62-2.689-2.073-4.216-2.615-.12-.045-.197.075-.16.313v19.336c0 1.071 1.388.504 1.79.345zm93.929-4.136h-10.405V37.478H351c.44 0 .693.361.693.728v15.326zm5.114 2.923l-.008-16.68c0-.318.159-.473.478-.634.643-.216 1.959-.609 2.016-.98.102-.373-.102-.69-.486-1.064-1.088-1.06-2.925-2.83-4.733-3.413-.32-.159-.582-.108-.796.106l-1.283 1.417c-.215.373-.785.882-1.8.882h-8.637c-1.348-.838-3.102-1.806-5.165-2.547-.156-.054-.265.107-.213.431v24.701c0 1.448 1.342.684 1.89.464 1.307-.524 2.733-1.615 2.733-1.615s.492-.216.492-.761l-.007-1.846h10.405v3.013c0 1.444 1.34.678 1.89.464 1.305-.526 2.734-1.177 2.734-1.177s.49-.217.49-.761zm-40.13-18.977h8.832c.439 0 .692.361.692.728v15.326h-9.524V37.478zm-.488 20.045s.493-.216.493-.761l-.005-1.846h9.524v3.013c0 1.444 1.338.678 1.886.464 1.307-.526 2.735-1.177 2.735-1.177s.49-.217.49-.761l-.009-16.68c0-.318.162-.473.479-.634.644-.216 1.961-.609 2.015-.98.105-.373-.097-.69-.48-1.064-1.092-1.06-2.926-2.83-4.74-3.413-.315-.159-.585-.108-.793.106 0 0-1.946 2.299-2.195 2.299h-8.646c-1.345-.838-3.103-1.806-5.162-2.547-.16-.054-.264.107-.211.431v24.701c0 1.448 1.34.684 1.885.464 1.31-.524 2.734-1.615 2.734-1.615zm-59.168-22.558l2.099-.29h10.26c.336 0 .482-.074.59-.258.076-.15.037-.33-.145-.515-.734-1.034-1.62-1.954-2.762-2.615-.255-.186-.404-.148-.592.038l-.931 1.5c-.11.185-.332.26-.591.26h-5.83l-2.872-.26c-.332-.071-.44-.036-.405.148l.775 1.884c.037.186.183.221.404.108zm68.936-20.47h16.534c.44 0 .688.36.688.727v10.895h-17.222V14.494zm-5.109 15.965c0 1.448 1.339.687 1.889.463 1.305-.523 2.734-1.615 2.734-1.615s.493-.215.493-.766l-.007-1.04h17.222v2.674c0 1.448 1.345.686 1.892.469 1.306-.528 2.734-1.181 2.734-1.181s.488-.218.488-.763V16.79c0-.318.157-.478.478-.639.636-.211 1.957-.602 2.006-.976.109-.37-.095-.69-.478-1.063-1.087-1.056-2.925-2.828-4.735-3.41-.317-.165-.582-.108-.797.107l-1.28 1.414c-.441.492-.851.889-1.403.889h-15.861c-1.35-.846-3.098-1.814-5.16-2.548-.16-.06-.267.105-.215.426v19.47zm-53.785-5.883c-.255-.186-.404-.146-.592.037l-.931 1.503c-.11.186-.332.26-.591.26h-5.83l-2.872-.26c-.332-.07-.44-.033-.405.148l.775 1.886c.037.184.183.222.404.114l2.099-.299h10.26c.336 0 .482-.073.59-.259.076-.146.037-.329-.145-.515-.734-1.032-1.62-1.949-2.762-2.615zm29.566-10.761c1.282 1.781 1.743 3.21 3.394 2.694.796-.277 1.292-.84 1.453-1.59.157-.888.22-1.891-.649-2.645-2.095-1.83-5.409-2.096-6.886-2.394-.216.054.266.531.406.7 1.071 1.317 1.368 1.961 2.282 3.235zm-40.358 7.98l2.101-.298h12.738c.332 0 .478-.073.59-.256.073-.148.036-.33-.147-.515-.739-1.03-1.621-1.954-2.764-2.615-.257-.183-.404-.144-.59.035l-.934 1.504c-.11.183-.331.257-.587.257h-8.306l-2.872-.257c-.332-.072-.444-.035-.407.148l.773 1.887c.038.182.18.219.405.11zm.75-7.017l2.099-.293h11.162c.33 0 .477-.082.588-.26.075-.145.036-.331-.146-.514-.74-1.031-1.623-1.95-2.762-2.616-.26-.185-.406-.148-.59.038l-.934 1.502c-.118.184-.332.26-.591.26h-6.727l-2.873-.26c-.332-.076-.44-.037-.405.148l.775 1.885c.037.186.183.221.404.11z" transform="translate(46 58)"/>
                        <path fill="#FFF" d="M104.604 37.032H89.55c-2.115 0-2.197.161-2.197 2.178 0 8.149 4.801 15.087 13.508 15.087 2.685 0 4.963-.807 7.486-3.953.813-.242 1.383.242 1.464.968-2.685 5.486-8.543 7.503-12.775 7.503-5.289 0-9.439-2.259-11.798-5.325-2.442-3.146-3.418-6.938-3.418-10.488 0-9.923 6.591-18.233 16.355-18.233 6.998 0 11.555 4.76 11.555 9.6 0 1.13-.163 1.775-.325 2.098-.245.484-1.384.565-4.801.565zm-15.786-2.42h5.777c6.022 0 7.812-.323 8.463-.807.244-.162.488-.484.488-1.533 0-2.26-1.546-5.083-6.266-5.083-4.8 0-8.95 4.357-9.032 7.019 0 .161 0 .403.57.403zm38.488-9.843c3.418 0 6.428.806 7.16 1.452.733 1.775 1.303 4.356 1.303 6.535-.326.565-1.546.726-1.953.242-1.384-3.55-3.825-5.89-7.16-5.89-3.174 0-5.209 2.017-5.209 4.922 0 3.308 3.418 5.082 6.266 6.696 4.313 2.42 8.3 5.164 8.3 10.892 0 6.131-5.696 9.197-11.718 9.197-3.824 0-6.672-.807-8.706-2.42-.651-1.533-1.14-5.486-.977-8.149.407-.484 1.465-.565 1.872-.08 1.383 4.437 3.987 8.31 8.625 8.31 2.93 0 5.452-1.695 5.452-5.164 0-3.711-3.255-5.728-6.266-7.422-4.72-2.663-8.055-5.487-8.055-9.924 0-5.89 4.882-9.197 11.066-9.197zm25.306-14.28v38.16c0 5.81.163 6.616 3.092 7.02l1.953.242c.57.403.407 1.775-.162 2.017-2.686-.162-5.045-.242-7.893-.242-2.93 0-5.37.08-7.812.242-.57-.242-.732-1.614-.163-2.017l1.872-.242c3.01-.404 3.092-1.21 3.092-7.02V12.184c0-4.76-.081-5.245-2.523-6.697l-.813-.484c-.407-.242-.407-1.371 0-1.613 2.034-.646 5.858-1.856 8.788-3.389.325 0 .65.161.813.484-.081 2.42-.244 6.454-.244 10.004zm15.868 38.16V34.532c0-3.147 0-3.55-2.197-5.002l-.733-.484c-.325-.323-.325-1.21.082-1.453 1.871-.645 6.51-2.743 8.38-3.953.408 0 .733.161.814.484-.162 2.824-.325 6.696-.325 10.004V48.65c0 5.809.163 6.615 3.092 7.019l1.709.242c.57.403.407 1.775-.163 2.017-2.441-.162-4.8-.242-7.649-.242-2.93 0-5.37.08-7.649.242-.57-.242-.732-1.614-.162-2.017l1.708-.242c3.011-.404 3.093-1.21 3.093-7.02zm2.685-41.307c2.44 0 4.068 1.936 4.068 4.195 0 2.905-2.034 4.195-4.312 4.195-2.523 0-4.15-1.855-4.15-4.034 0-2.662 1.953-4.356 4.394-4.356zm35.07 21.945h-9.194c-1.384 0-1.465.242-1.465 1.936V46.31c0 4.68.57 8.955 5.94 8.955.814 0 1.546-.161 2.197-.403.732-.242 1.79-1.13 2.034-1.13.651 0 .977.888.814 1.372-1.465 1.694-4.394 3.711-8.544 3.711-6.998 0-8.463-3.872-8.463-8.713V31.626c0-2.178-.08-2.34-1.708-2.34h-2.279c-.488-.322-.57-1.21-.244-1.694 2.36-.726 4.394-1.775 5.208-2.5 1.058-.969 2.604-3.147 3.417-4.76.407-.162 1.384-.162 1.71.403v3.63c0 1.452.08 1.533 1.464 1.533h9.032c.976.726.814 2.905.081 3.389zm27.748 7.745h-15.054c-2.115 0-2.197.161-2.197 2.178 0 8.149 4.801 15.087 13.508 15.087 2.685 0 4.963-.807 7.486-3.953.813-.242 1.383.242 1.464.968-2.685 5.486-8.543 7.503-12.775 7.503-5.289 0-9.439-2.259-11.798-5.325-2.442-3.146-3.418-6.938-3.418-10.488 0-9.923 6.591-18.233 16.355-18.233 6.998 0 11.555 4.76 11.555 9.6 0 1.13-.163 1.775-.325 2.098-.245.484-1.384.565-4.801.565zm-15.786-2.42h5.777c6.022 0 7.812-.323 8.463-.807.244-.162.488-.484.488-1.533 0-2.26-1.546-5.083-6.266-5.083-4.8 0-8.95 4.357-9.032 7.019 0 .161 0 .403.57.403z" transform="translate(46 58)"/>
                    </g>
                </g>
            </g>
        </g>
    </g>
</svg>
